# xmcd
#
# Track frame offsets:
#	150
#	9010
#	20460
#	30362
#	41285
#	52912
#	62282
#	70975
#	82910
#	91280
#	101472
#	115477
#
# Disc length: 1697 seconds
#
# Revision: 2
# Processed by: cddbd v1.5.2PL0 Copyright (c) Steve Scherf et al.
# Submitted via: audiograbber 1.83.01
#
DISCID=7b069f0c
DTITLE=Connie Stevens - As Cricket in Hawaiian Eye
DYEAR=1960
DGENRE=Oldies
TTITLE0=Sixteen Reasons
TTITLE1=On A Slow Boat To China
TTITLE2=Too Young To Go Steady
TTITLE3=Little Kiss Is A Kiss Is A Kiss
TTITLE4=Why Try To Change Me Now
TTITLE5=Love Of The Month Club
TTITLE6=Apollo
TTITLE7=Too Young
TTITLE8=Lulu's Back In Town
TTITLE9=Why Do I Cry For Joey
TTITLE10=Let's Do It
TTITLE11=Trolley Song
EXTD=
EXTT0=
EXTT1=
EXTT2=
EXTT3=
EXTT4=
EXTT5=
EXTT6=
EXTT7=
EXTT8=
EXTT9=
EXTT10=
EXTT11=
PLAYORDER=
